<svg xmlns="http://www.w3.org/2000/svg" viewBox="0 0 100 100">
  <g id="logo_bg">
    <rect id="logo_bg_rect" width="100" height="100" fill="#008a94"/>
  </g>
  <g id="logo">
    <path id="logo_s" d="M17.24,64.22a10.58,10.58,0,0,1-6.51-1.89A7,7,0,0,1,7.9,57.11H11a4.57,4.57,0,0,0,1.91,3.12,7.1,7.1,0,0,0,4.39,1.25,5.55,5.55,0,0,0,3.9-1.18,3.52,3.52,0,0,0,1.24-2.59A2.63,2.63,0,0,0,21,55.05a15.36,15.36,0,0,0-4.52-1,12.82,12.82,0,0,1-5.66-1.82,4.83,4.83,0,0,1-2.18-4.31,5.22,5.22,0,0,1,2.16-4.24,9.21,9.21,0,0,1,5.85-1.72,9.23,9.23,0,0,1,5.81,1.65,6.46,6.46,0,0,1,2.38,4.82h-3a3.36,3.36,0,0,0-1.57-2.69,6.22,6.22,0,0,0-3.66-1,6.51,6.51,0,0,0-3.58.83,2.65,2.65,0,0,0,.11,4.59,9.87,9.87,0,0,0,4.37,1.22,19.92,19.92,0,0,1,4.05.79A6.32,6.32,0,0,1,24.44,54a5.26,5.26,0,0,1,1.12,3.6,5.55,5.55,0,0,1-1,3.4,7.1,7.1,0,0,1-2.94,2.38A10.32,10.32,0,0,1,17.24,64.22Z"/>
    <g id="logo_3d">
      <path id="logo_d" d="M61.22,64.71V33.65h7.45q7.5,0,11.14,4.15t3.63,11.38q0,7.23-3.63,11.38T68.67,64.71Zm4.7-4.35h2.57c3.61,0,6.21-1,7.81-3a12.78,12.78,0,0,0,2.4-8.14A12.76,12.76,0,0,0,76.3,41q-2.4-3-7.81-3H65.92Z"/>
      <path id="logo_3" d="M45.6,65.24a13,13,0,0,1-5.55-1.16,9.22,9.22,0,0,1-3.94-3.39,10.53,10.53,0,0,1-1.6-5.44h4.7a5.82,5.82,0,0,0,1.8,4,6.34,6.34,0,0,0,4.59,1.6,6.7,6.7,0,0,0,4.53-1.42,4.91,4.91,0,0,0,1.64-3.9,4.46,4.46,0,0,0-2-4,8.81,8.81,0,0,0-4.88-1.29H42.14V46.07h2.35A7.9,7.9,0,0,0,48.79,45a3.65,3.65,0,0,0,1.69-3.33,3.88,3.88,0,0,0-1.29-3.08,5.28,5.28,0,0,0-3.63-1.14,5.47,5.47,0,0,0-3.82,1.29A4.84,4.84,0,0,0,40.14,42H35.48a9.36,9.36,0,0,1,1.42-4.65,8.8,8.8,0,0,1,3.51-3.13,11.1,11.1,0,0,1,5.15-1.13,11.69,11.69,0,0,1,5.32,1.08,7.61,7.61,0,0,1,3.19,2.91,7.91,7.91,0,0,1,1.07,4.08,6.1,6.1,0,0,1-1.35,4,7.9,7.9,0,0,1-3.27,2.42v.27a8.35,8.35,0,0,1,4.24,2.64,7.62,7.62,0,0,1,1.67,5.16,9.54,9.54,0,0,1-1.27,4.82A9,9,0,0,1,51.48,64,12.34,12.34,0,0,1,45.6,65.24Z"/>
    </g>
    <path id="logo_partialCircle" d="M30.06,67.53a33.5,33.5,0,1,0,.65-36.08" fill="none" stroke="#000"/>
  </g>
</svg>
